<svg xmlns="http://www.w3.org/2000/svg" width="30" height="30" viewBox="0 0 30 30"><defs><style>.a,.d{fill:#fff;}.a{stroke:#eceef5;}.b{fill:#8083a3;}.c{fill:#e21414;}.d{font-size:9px;font-family:Helvetica;}.e{stroke:none;}.f{fill:none;}</style></defs><g transform="translate(-2282 6208)"><g class="a" transform="translate(2282 -6208)"><rect class="e" width="30" height="30" rx="5"/><rect class="f" x="0.5" y="0.5" width="29" height="29" rx="4.5"/></g><path class="b" d="M14.919,11.275a4.465,4.465,0,0,1-1.586-3.417V6a4.67,4.67,0,0,0-4-4.613V.667A.667.667,0,0,0,8,.667v.72A4.67,4.67,0,0,0,4,6V7.859a4.47,4.47,0,0,1-1.592,3.422,1.166,1.166,0,0,0,.759,2.053h11a1.167,1.167,0,0,0,.753-2.058Z" transform="translate(2288 -6201)"/><path class="b" d="M10.775,23a2.5,2.5,0,0,0,2.449-2h-4.9A2.5,2.5,0,0,0,10.775,23Z" transform="translate(2285.674 -6208)"/><circle class="c" cx="5" cy="5" r="5" transform="translate(2298 -6202)"/><text class="d" transform="translate(2301 -6194)"><tspan x="0" y="0">5</tspan></text></g></svg>