<svg xmlns="http://www.w3.org/2000/svg" width="30" height="30" viewBox="0 0 30 30"><defs><style>.a{fill:#fff;}.b{fill:#8083a3;}</style></defs><g transform="translate(9333 22351)"><rect class="a" width="30" height="30" rx="5" transform="translate(-9333 -22351)"/><g transform="translate(-9326 -22345)"><path class="b" d="M6.515,0H1.233A1.234,1.234,0,0,0,0,1.233V4.4A1.234,1.234,0,0,0,1.233,5.635H6.515A1.234,1.234,0,0,0,7.748,4.4V1.233A1.234,1.234,0,0,0,6.515,0Z"/><path class="b" d="M6.515,10H1.233A1.234,1.234,0,0,0,0,11.233v7.4a1.234,1.234,0,0,0,1.233,1.233H6.515a1.234,1.234,0,0,0,1.233-1.233v-7.4A1.234,1.234,0,0,0,6.515,10Z" transform="translate(0 -2.956)"/><path class="b" d="M19.515,16H14.233A1.234,1.234,0,0,0,13,17.233V20.4a1.234,1.234,0,0,0,1.233,1.233h5.283A1.234,1.234,0,0,0,20.748,20.4v-3.17A1.234,1.234,0,0,0,19.515,16Z" transform="translate(-3.843 -4.73)"/><path class="b" d="M19.515,0H14.233A1.234,1.234,0,0,0,13,1.233v7.4a1.234,1.234,0,0,0,1.233,1.233h5.283a1.234,1.234,0,0,0,1.233-1.233v-7.4A1.234,1.234,0,0,0,19.515,0Z" transform="translate(-3.843)"/></g></g></svg>