<svg xmlns="http://www.w3.org/2000/svg" width="12.696" height="9.522" viewBox="0 0 12.696 9.522"><defs><style>.a{fill:#8181a5;}</style></defs><g transform="translate(0 -64)"><g transform="translate(0 64)"><path class="a" d="M7.007,64.773c1.742,1.476,4.8,4.072,5.7,4.881a.531.531,0,0,0,.768,0c.9-.81,3.957-3.407,5.7-4.882a.264.264,0,0,0,.037-.365A1.05,1.05,0,0,0,18.38,64H7.8a1.05,1.05,0,0,0-.83.408A.264.264,0,0,0,7.007,64.773Z" transform="translate(-6.742 -64)"/><path class="a" d="M12.542,126.436a.263.263,0,0,0-.282.038c-1.932,1.638-4.4,3.738-5.174,4.437a1.071,1.071,0,0,1-1.476,0c-.827-.745-3.6-3.1-5.174-4.436a.264.264,0,0,0-.435.2v6.652a1.059,1.059,0,0,0,1.058,1.058h10.58a1.059,1.059,0,0,0,1.058-1.058v-6.652A.264.264,0,0,0,12.542,126.436Z" transform="translate(0 -124.864)"/></g></g></svg>