<svg xmlns="http://www.w3.org/2000/svg" width="16" height="16" viewBox="0 0 16 16"><defs><style>.a{fill:#7065ef;}.b{fill:#fff;}</style></defs><circle class="a" cx="8" cy="8" r="8"/><g transform="translate(3.2 2.56)"><g transform="translate(1.988)"><g transform="translate(0)"><path class="b" d="M113.536,0a2.745,2.745,0,1,0,2.745,2.745A2.752,2.752,0,0,0,113.536,0Z" transform="translate(-110.791)"/></g></g><g transform="translate(0 5.687)"><g transform="translate(0)"><path class="b" d="M33.609,249.838a2.56,2.56,0,0,0-.276-.5,3.412,3.412,0,0,0-2.362-1.486.506.506,0,0,0-.348.084,2.926,2.926,0,0,1-3.452,0,.45.45,0,0,0-.348-.084,3.388,3.388,0,0,0-2.362,1.486,2.951,2.951,0,0,0-.276.5.255.255,0,0,0,.012.228,4.78,4.78,0,0,0,.324.479,4.555,4.555,0,0,0,.551.623,7.168,7.168,0,0,0,.551.479,5.466,5.466,0,0,0,6.521,0,5.265,5.265,0,0,0,.551-.479,5.536,5.536,0,0,0,.551-.623,4.2,4.2,0,0,0,.324-.479A.2.2,0,0,0,33.609,249.838Z" transform="translate(-24.165 -247.841)"/></g></g></g></svg>