<svg xmlns="http://www.w3.org/2000/svg" width="14" height="14" viewBox="0 0 14 14"><defs><style>.a{fill:#fff;}</style></defs><g transform="translate(-708 -501)"><rect width="14" height="14" rx="2" transform="translate(708 501)"/><g transform="translate(711 504)"><path class="a" d="M13.478,12.86h0V10.027c0-1.386-.3-2.453-1.918-2.453a1.682,1.682,0,0,0-1.515.832h-.023V7.7H8.489v5.156h1.6V10.306c0-.672.127-1.322.96-1.322s.832.767.832,1.365v2.51Z" transform="translate(-5.757 -5.137)"/><path class="a" d="M.4,7.977H2v5.156H.4Z" transform="translate(-0.269 -5.41)"/><path class="a" d="M.927,0a.932.932,0,1,0,.927.927A.928.928,0,0,0,.927,0Z"/></g></g></svg>