<svg xmlns="http://www.w3.org/2000/svg" width="13.333" height="16" viewBox="0 0 13.333 16"><defs><style>.a{fill:#8083a3;}</style></defs><g transform="translate(-2290 6201)"><path class="a" d="M14.919,11.275a4.465,4.465,0,0,1-1.586-3.417V6a4.67,4.67,0,0,0-4-4.613V.667A.667.667,0,0,0,8,.667v.72A4.67,4.67,0,0,0,4,6V7.859a4.47,4.47,0,0,1-1.592,3.422,1.166,1.166,0,0,0,.759,2.053h11a1.167,1.167,0,0,0,.753-2.058Z" transform="translate(2288 -6201)"/><path class="a" d="M10.775,23a2.5,2.5,0,0,0,2.449-2h-4.9A2.5,2.5,0,0,0,10.775,23Z" transform="translate(2285.674 -6208)"/></g></svg>