<svg xmlns="http://www.w3.org/2000/svg" width="11.378" height="10" viewBox="0 0 11.378 10"><g transform="translate(0)"><path d="M211,240h2v.667h-2Zm0,0" transform="translate(-206.311 -234.667)"/><path d="M9.231,81.69H7.356v.333a.333.333,0,0,1-.333.333H4.356a.333.333,0,0,1-.333-.333V81.69H2.147a1,1,0,0,1-.949-.684L0,77.41v7.28a1,1,0,0,0,1,1h9.378a1,1,0,0,0,1-1v-7.28l-1.2,3.6a1,1,0,0,1-.949.684Zm0,0" transform="translate(0 -75.69)"/><path d="M32.258,0H29.591a1,1,0,0,0-1,1v.333H25.809l1.257,3.772a.333.333,0,0,0,.316.228h1.875V5a.333.333,0,0,1,.333-.333h2.667A.333.333,0,0,1,32.591,5v.333h1.875a.333.333,0,0,0,.316-.228L36.04,1.333H33.258V1a1,1,0,0,0-1-1Zm-3,1.333V1a.334.334,0,0,1,.333-.333h2.667A.334.334,0,0,1,32.591,1v.333Zm0,0" transform="translate(-25.235)"/></g></svg>