<svg xmlns="http://www.w3.org/2000/svg" width="30" height="30" viewBox="0 0 30 30"><defs><style>.a{fill:#fff;stroke:#eceef5;}.b{fill:#7065ef;}.c{stroke:none;}.d{fill:none;}</style></defs><g transform="translate(9333 22042)"><g class="a" transform="translate(-9333 -22042)"><rect class="c" width="30" height="30" rx="5"/><rect class="d" x="0.5" y="0.5" width="29" height="29" rx="4.5"/></g><g transform="translate(-9330.768 -22034)"><g transform="translate(5.768)"><path class="b" d="M19.244,8.834,17.768,7.676a5.492,5.492,0,0,0,.049-.682,5.492,5.492,0,0,0-.049-.682l1.479-1.158a.349.349,0,0,0,.084-.448l-1.4-2.423a.346.346,0,0,0-.427-.15l-1.742.7a5.307,5.307,0,0,0-1.182-.689L14.32.294A.36.36,0,0,0,13.97,0h-2.8a.353.353,0,0,0-.346.294l-.262,1.853a5.176,5.176,0,0,0-1.182.689l-1.742-.7a.35.35,0,0,0-.427.15l-1.4,2.423a.35.35,0,0,0,.084.448L7.375,6.312a5.493,5.493,0,0,0-.049.682,5.493,5.493,0,0,0,.049.682L5.9,8.834a.349.349,0,0,0-.084.448l1.4,2.423a.346.346,0,0,0,.427.15l1.742-.7a5.307,5.307,0,0,0,1.182.689l.262,1.853a.353.353,0,0,0,.346.294h2.8a.353.353,0,0,0,.346-.294l.262-1.853a5.176,5.176,0,0,0,1.182-.689l1.742.7a.35.35,0,0,0,.427-.15l1.4-2.423A.35.35,0,0,0,19.244,8.834Zm-6.672.608a2.448,2.448,0,1,1,2.448-2.448A2.446,2.446,0,0,1,12.571,9.442Z" transform="translate(-5.768)"/></g></g></g></svg>