<svg xmlns="http://www.w3.org/2000/svg" width="8.771" height="9.979" viewBox="0 0 8.771 9.979"><g transform="translate(-31)"><g transform="translate(32.754)"><path d="M123.631,0a2.631,2.631,0,1,0,2.631,2.631A2.634,2.634,0,0,0,123.631,0Z" transform="translate(-121)"/></g><g transform="translate(31 5.847)"><path d="M38.659,301.134A3.751,3.751,0,0,0,35.97,300H34.8a3.751,3.751,0,0,0-2.689,1.134A3.835,3.835,0,0,0,31,303.84a.292.292,0,0,0,.292.292h8.186a.292.292,0,0,0,.292-.292A3.835,3.835,0,0,0,38.659,301.134Z" transform="translate(-31 -300)"/></g></g></svg>