<svg xmlns="http://www.w3.org/2000/svg" width="12.88" height="13.142" viewBox="0 0 12.88 13.142"><defs><style>.a{fill:#8083a3;}</style></defs><path class="a" d="M136.858,108.1a5.63,5.63,0,0,0-.139-1.343h-6.17V109.2h3.621a3.211,3.211,0,0,1-1.343,2.132l-.012.082,1.951,1.511.135.013a6.425,6.425,0,0,0,1.957-4.833" transform="translate(-123.979 -101.387)"/><path class="a" d="M19.8,161.642a6.263,6.263,0,0,0,4.352-1.592l-2.074-1.606a3.889,3.889,0,0,1-2.278.657,3.956,3.956,0,0,1-3.738-2.731l-.077.007-2.028,1.57-.027.074a6.566,6.566,0,0,0,5.87,3.621" transform="translate(-13.224 -148.499)"/><path class="a" d="M2.833,75.593a4.045,4.045,0,0,1-.219-1.3,4.251,4.251,0,0,1,.212-1.3l0-.087L.768,71.312.7,71.344a6.557,6.557,0,0,0,0,5.9l2.132-1.65" transform="translate(0 -67.723)"/><path class="a" d="M19.8,2.541a3.642,3.642,0,0,1,2.541.978l1.855-1.811A6.314,6.314,0,0,0,19.8,0a6.566,6.566,0,0,0-5.87,3.621l2.125,1.65A3.972,3.972,0,0,1,19.8,2.541" transform="translate(-13.224 0)"/></svg>